# xmcd
#
# Track frame offsets:
#	150
#	23577
#	40662
#	60187
#
# Disc length: 1106 seconds
#
# Revision: 1
# Processed by: cddbd v1.5PL3 Copyright (c) Steve Scherf et al.
# Submitted via: CDex 1.50Beta5
#
DISCID=1f045004
DTITLE=工藤静香 - EURO工藤静香
DYEAR=2000
DGENRE=Pop
TTITLE0=MUGO・ん…色っぽい(MUGON IROPPOI)
TTITLE1=嵐の素顔(ARASHI NO SUGAO)
TTITLE2=くちびるから媚薬(KUCHIBIRU KARA BIYAKU)
TTITLE3=慟哭(DOUKOKU)
EXTD=
EXTT0=
EXTT1=
EXTT2=
EXTT3=
PLAYORDER=
